<?xml version="1.0" standalone="no"?>
<!DOCTYPE svg PUBLIC "-//W3C//DTD SVG 20010904//EN"
 "http://www.w3.org/TR/2001/REC-SVG-20010904/DTD/svg10.dtd">
<svg version="1.0" xmlns="http://www.w3.org/2000/svg"
 width="121.000000pt" height="97.000000pt" viewBox="0 0 121.000000 97.000000"
 preserveAspectRatio="xMidYMid meet">
<metadata>
Created by potrace 1.15, written by Peter Selinger 2001-2017
</metadata>
<g transform="translate(0.000000,97.000000) scale(0.100000,-0.100000)"
fill="#000000" stroke="none">
<path d="M60 480 l0 -450 280 0 280 0 0 450 0 450 -280 0 -280 0 0 -450z m170
35 l0 -105 110 0 110 0 0 105 0 105 55 0 55 0 0 -270 0 -270 -55 0 -55 0 0
115 0 115 -110 0 -110 0 0 -115 0 -116 -57 3 -58 3 -3 255 c-1 140 0 260 3
267 3 8 24 13 60 13 l55 0 0 -105z"/>
<path d="M792 622 c-65 -23 -99 -54 -113 -103 -15 -50 -5 -98 30 -139 24 -29
48 -41 152 -75 108 -35 124 -43 127 -63 5 -31 -13 -50 -58 -63 -61 -18 -107 2
-132 58 -19 44 -21 45 -56 39 -21 -3 -49 -6 -64 -6 -33 0 -36 -21 -13 -78 33
-77 102 -122 202 -130 109 -8 203 30 238 98 22 42 19 128 -5 167 -27 45 -58
62 -177 98 -58 18 -110 39 -114 48 -20 35 60 68 114 48 15 -6 36 -24 45 -41
16 -28 20 -30 81 -30 l64 0 -7 43 c-9 56 -33 87 -89 116 -65 32 -156 37 -225
13z"/>
</g>
</svg>
